<?xml version="1.0" standalone="no"?>
<!DOCTYPE svg PUBLIC "-//W3C//DTD SVG 20010904//EN"
 "http://www.w3.org/TR/2001/REC-SVG-20010904/DTD/svg10.dtd">
<svg version="1.0" xmlns="http://www.w3.org/2000/svg"
 width="500.000000pt" height="500.000000pt" viewBox="0 0 500.000000 500.000000"
 preserveAspectRatio="xMidYMid meet">
<metadata>
Created by potrace 1.14, written by Peter Selinger 2001-2017
</metadata>
<g transform="translate(0.000000,500.000000) scale(0.100000,-0.100000)"
fill="#000000" stroke="none">
<path d="M3337 3274 c-1 -1 -26 -4 -55 -8 -189 -22 -321 -161 -357 -376 -3
-19 -8 -43 -11 -54 -4 -10 -6 -265 -6 -566 -1 -489 1 -556 17 -622 55 -230
230 -354 486 -343 176 7 312 72 379 180 27 43 58 135 66 194 8 56 11 446 4
464 -4 9 -52 12 -193 12 -158 0 -188 -2 -191 -15 -2 -8 -4 -99 -4 -201 0 -103
-3 -197 -7 -210 -12 -41 -46 -69 -81 -69 -40 0 -70 25 -82 70 -14 54 -9 1109
6 1143 24 56 130 59 149 4 13 -41 14 -52 15 -219 1 -144 3 -167 17 -170 9 -2
95 -3 191 -3 l175 0 2 194 c1 107 -3 219 -8 250 -30 167 -151 290 -324 330
-43 10 -181 21 -188 15z"/>
<path d="M1039 3246 c-4 -51 -3 -356 1 -357 3 -1 52 -3 110 -4 58 -2 108 -3
112 -4 3 0 7 -92 7 -203 0 -112 0 -463 0 -780 l1 -578 193 0 192 0 0 776 c0
427 2 779 5 783 3 3 55 6 115 6 l110 0 0 185 0 185 -422 1 c-299 1 -423 -2
-424 -10z"/>
<path d="M1996 3251 c-2 -3 -3 -439 -3 -969 l0 -962 401 2 400 3 -1 163 c0 89
-1 173 -2 186 l-1 23 -195 0 c-107 0 -198 2 -201 5 -5 6 -6 44 -5 301 l1 137
180 0 c180 0 180 0 181 23 0 12 2 94 2 183 l2 161 -177 -1 c-98 0 -180 3 -183
6 -8 8 -8 358 -1 366 4 3 89 5 191 5 l185 0 0 187 0 187 -386 0 c-212 -1 -387
-3 -388 -6z"/>
<path d="M3990 2288 l0 -968 193 0 193 0 0 438 -1 437 92 3 91 3 1 -403 c0
-222 0 -420 0 -440 l1 -38 193 0 192 0 0 965 c0 531 -2 966 -5 967 -3 0 -89 2
-192 3 -131 1 -188 -1 -188 -9 -1 -6 -2 -162 -3 -346 l-2 -335 -80 -1 c-44 0
-84 3 -90 7 -6 5 -10 131 -10 347 l1 339 -193 0 -193 0 0 -969z"/>
<path d="M88 3242 l-88 -3 0 -1019 0 -1020 472 2 472 3 0 1014 c1 667 -2 1015
-9 1017 -13 5 -730 10 -847 6z"/>
</g>
</svg>
